<?xml version="1.0" encoding="UTF-8" standalone="no"?>
<!DOCTYPE svg PUBLIC "-//W3C//DTD SVG 1.1//EN" "http://www.w3.org/Graphics/SVG/1.1/DTD/svg11.dtd">
<svg width="100%" height="100%" viewBox="0 0 9626 3955" version="1.1" xmlns="http://www.w3.org/2000/svg" xmlnsXlink="http://www.w3.org/1999/xlink" xmlSpace="preserve" xmlnsSerif="http://www.serif.com/" style="fill-rule:evenodd;clip-rule:evenodd;stroke-linecap:round;stroke-linejoin:round;stroke-miterlimit:1.5;">
    <g transform="matrix(1,0,0,1,-467.463,-1989.15)">
        <g>
            <g transform="matrix(1.33069,-1.33068,1.35293,1.35293,-12085.3,-6030.48)">
                <path d="M2447.24,8530.76L2447.24,8500.09C2447.24,8455.67 2429.3,8413.08 2397.37,8381.67C2365.44,8350.26 2322.13,8332.62 2276.97,8332.62L1129.63,8332.62C1035.59,8332.62 959.36,8407.6 959.36,8500.09L959.36,9628.57C959.36,9721.06 1035.59,9796.04 1129.63,9796.04L2276.97,9796.04C2371.01,9796.04 2447.24,9721.06 2447.24,9628.57L2447.24,8849.38" style="fill:rgb(0,112,181);fill-opacity:0;stroke:rgb(0,112,181);stroke-width:137.02px;"/>
            </g>
            <g transform="matrix(2.29762,0,0,1.46203,958.722,2507.89)">
                <ellipse cx="415.716" cy="532.447" rx="134.719" ry="203.912" style="fill:rgb(0,112,181);stroke:rgb(0,112,181);stroke-width:49.58px;"/>
            </g>
            <g transform="matrix(2.29762,0,0,1.46203,2020.32,2507.89)">
                <ellipse cx="415.716" cy="532.447" rx="134.719" ry="203.912" style="fill:rgb(5,175,176);stroke:rgb(5,175,176);stroke-width:49.58px;"/>
            </g>
            <g transform="matrix(2.29762,0,0,1.46203,958.722,3867.97)">
                <ellipse cx="415.716" cy="532.447" rx="134.719" ry="203.912" style="fill:rgb(5,175,176);stroke:rgb(5,175,176);stroke-width:49.58px;"/>
            </g>
            <g transform="matrix(2.29762,0,0,1.46203,2020.32,3867.97)">
                <ellipse cx="415.716" cy="532.447" rx="134.719" ry="203.912" style="fill:rgb(0,112,181);stroke:rgb(0,112,181);stroke-width:49.58px;"/>
            </g>
            <g transform="matrix(2.26216,0,0,2.98125,968.522,1656.07)">
                <path d="M1024,774.929C1024,755.745 1013.57,737.346 995.01,723.78C976.447,710.214 951.271,702.593 925.02,702.593L379.977,702.593C353.726,702.593 328.55,710.214 309.988,723.78C291.425,737.346 280.997,755.745 280.997,774.929L280.997,774.931C280.997,794.116 291.425,812.515 309.988,826.081C328.55,839.647 353.726,847.268 379.977,847.268L925.02,847.268C951.271,847.268 976.447,839.647 995.01,826.081C1013.57,812.515 1024,794.116 1024,774.931L1024,774.929Z" style="fill:rgb(5,175,176);stroke:rgb(5,175,176);stroke-width:35.62px;"/>
            </g>
            <g transform="matrix(1.83021,0,0,2,4583.72,3251.83)">
                <g transform="matrix(500,0,0,500,0,0)">
                    <path d="M0.363,-0.471L0.363,-0.107L0.445,-0.107C0.467,-0.107 0.483,-0.103 0.492,-0.094C0.502,-0.086 0.507,-0.073 0.507,-0.054C0.507,-0.035 0.502,-0.022 0.492,-0.013C0.482,-0.004 0.467,-0 0.445,-0L0.155,-0C0.133,-0 0.117,-0.004 0.107,-0.013C0.098,-0.021 0.093,-0.035 0.093,-0.054C0.093,-0.073 0.097,-0.087 0.107,-0.095C0.116,-0.103 0.132,-0.107 0.155,-0.107L0.237,-0.107L0.237,-0.471L0.155,-0.471C0.133,-0.471 0.117,-0.475 0.107,-0.484C0.098,-0.492 0.093,-0.506 0.093,-0.525C0.093,-0.544 0.097,-0.558 0.107,-0.566C0.116,-0.574 0.132,-0.578 0.155,-0.578L0.445,-0.578C0.468,-0.578 0.484,-0.574 0.493,-0.566C0.502,-0.558 0.507,-0.544 0.507,-0.525C0.507,-0.506 0.502,-0.492 0.493,-0.484C0.483,-0.475 0.467,-0.471 0.445,-0.471L0.363,-0.471Z" style="fill:rgb(0,112,181);fill-rule:nonzero;"/>
                </g>
            </g>
            <g transform="matrix(1.83021,0,0,2,5178.72,3251.83)">
                <g transform="matrix(500,0,0,500,0,0)">
                    <path d="M0.505,-0.108L0.511,-0.108C0.529,-0.108 0.543,-0.103 0.552,-0.094C0.561,-0.086 0.566,-0.072 0.566,-0.054C0.566,-0.035 0.561,-0.021 0.552,-0.013C0.543,-0.004 0.527,-0 0.505,-0L0.385,-0C0.363,-0 0.347,-0.004 0.338,-0.013C0.328,-0.021 0.323,-0.035 0.323,-0.054C0.323,-0.072 0.328,-0.086 0.337,-0.094C0.346,-0.103 0.36,-0.108 0.379,-0.108L0.385,-0.108L0.385,-0.249C0.385,-0.288 0.379,-0.316 0.368,-0.332C0.358,-0.349 0.339,-0.357 0.314,-0.357C0.287,-0.357 0.265,-0.347 0.248,-0.327C0.231,-0.308 0.222,-0.282 0.222,-0.249L0.222,-0.108L0.228,-0.108C0.247,-0.108 0.26,-0.103 0.27,-0.094C0.279,-0.086 0.283,-0.072 0.283,-0.054C0.283,-0.035 0.278,-0.021 0.269,-0.013C0.26,-0.004 0.244,-0 0.222,-0L0.101,-0C0.079,-0 0.064,-0.004 0.054,-0.013C0.045,-0.021 0.04,-0.035 0.04,-0.054C0.04,-0.072 0.045,-0.086 0.054,-0.094C0.063,-0.103 0.077,-0.108 0.095,-0.108L0.101,-0.108L0.101,-0.344L0.093,-0.344C0.075,-0.344 0.062,-0.349 0.053,-0.358C0.044,-0.367 0.039,-0.38 0.039,-0.397C0.039,-0.416 0.044,-0.43 0.053,-0.438C0.063,-0.447 0.079,-0.451 0.101,-0.451L0.184,-0.451C0.193,-0.451 0.2,-0.449 0.205,-0.446C0.21,-0.442 0.212,-0.437 0.212,-0.43L0.212,-0.392C0.227,-0.416 0.246,-0.433 0.269,-0.445C0.293,-0.457 0.319,-0.463 0.35,-0.463C0.402,-0.463 0.441,-0.447 0.467,-0.416C0.492,-0.384 0.505,-0.336 0.505,-0.271L0.505,-0.108Z" style="fill:rgb(0,112,181);fill-rule:nonzero;"/>
                </g>
                <g transform="matrix(500,0,0,500,300.049,0)">
                    <path d="M0.266,-0.424L0.415,-0.424C0.438,-0.424 0.453,-0.42 0.463,-0.412C0.472,-0.403 0.477,-0.39 0.477,-0.371C0.477,-0.352 0.472,-0.338 0.463,-0.33C0.453,-0.321 0.437,-0.317 0.415,-0.317L0.266,-0.317L0.266,-0.192C0.266,-0.157 0.271,-0.133 0.282,-0.12C0.293,-0.107 0.312,-0.1 0.339,-0.1C0.364,-0.1 0.394,-0.107 0.429,-0.122C0.463,-0.137 0.486,-0.144 0.498,-0.144C0.511,-0.144 0.523,-0.139 0.532,-0.128C0.542,-0.118 0.547,-0.105 0.547,-0.09C0.547,-0.065 0.524,-0.042 0.479,-0.021C0.433,-0.001 0.382,0.01 0.324,0.01C0.291,0.01 0.261,0.005 0.236,-0.004C0.21,-0.013 0.19,-0.026 0.176,-0.043C0.165,-0.056 0.157,-0.072 0.153,-0.09C0.148,-0.108 0.146,-0.139 0.146,-0.181L0.146,-0.317L0.1,-0.317C0.078,-0.317 0.062,-0.321 0.053,-0.33C0.044,-0.338 0.039,-0.352 0.039,-0.371C0.039,-0.39 0.044,-0.404 0.053,-0.412C0.062,-0.42 0.078,-0.424 0.1,-0.424L0.146,-0.424L0.146,-0.538C0.146,-0.561 0.151,-0.576 0.16,-0.585C0.169,-0.595 0.185,-0.599 0.206,-0.599C0.228,-0.599 0.243,-0.595 0.252,-0.585C0.261,-0.576 0.266,-0.561 0.266,-0.538L0.266,-0.424Z" style="fill:rgb(0,112,181);fill-rule:nonzero;"/>
                </g>
                <g transform="matrix(500,0,0,500,600.098,0)">
                    <path d="M0.167,-0.197C0.175,-0.161 0.192,-0.134 0.216,-0.116C0.24,-0.098 0.273,-0.089 0.313,-0.089C0.353,-0.089 0.393,-0.099 0.433,-0.118C0.472,-0.138 0.496,-0.148 0.504,-0.148C0.516,-0.148 0.526,-0.143 0.533,-0.135C0.541,-0.126 0.545,-0.114 0.545,-0.1C0.545,-0.069 0.522,-0.043 0.477,-0.021C0.432,0.001 0.376,0.012 0.309,0.012C0.23,0.012 0.166,-0.01 0.117,-0.054C0.068,-0.098 0.043,-0.155 0.043,-0.225C0.043,-0.294 0.068,-0.351 0.117,-0.396C0.166,-0.44 0.23,-0.462 0.309,-0.462C0.379,-0.462 0.438,-0.441 0.484,-0.4C0.53,-0.358 0.553,-0.307 0.553,-0.247C0.553,-0.228 0.549,-0.215 0.539,-0.208C0.53,-0.2 0.511,-0.197 0.482,-0.197L0.167,-0.197ZM0.43,-0.273C0.425,-0.303 0.41,-0.327 0.387,-0.343C0.365,-0.36 0.335,-0.368 0.298,-0.368C0.262,-0.368 0.234,-0.36 0.212,-0.344C0.191,-0.329 0.175,-0.305 0.167,-0.273L0.43,-0.273Z" style="fill:rgb(0,112,181);fill-rule:nonzero;"/>
                </g>
                <g transform="matrix(500,0,0,500,900.146,0)">
                    <path d="M0.279,-0.36C0.247,-0.36 0.22,-0.348 0.199,-0.325C0.178,-0.302 0.168,-0.273 0.168,-0.237C0.168,-0.202 0.178,-0.173 0.199,-0.15C0.22,-0.127 0.247,-0.115 0.279,-0.115C0.311,-0.115 0.338,-0.127 0.359,-0.15C0.38,-0.173 0.39,-0.202 0.39,-0.237C0.39,-0.273 0.38,-0.302 0.359,-0.325C0.338,-0.348 0.311,-0.36 0.279,-0.36ZM0.4,-0.406L0.4,-0.431C0.4,-0.438 0.402,-0.443 0.407,-0.446C0.412,-0.449 0.419,-0.451 0.428,-0.451L0.508,-0.451C0.53,-0.451 0.546,-0.447 0.555,-0.439C0.564,-0.43 0.569,-0.417 0.569,-0.398C0.569,-0.38 0.564,-0.367 0.555,-0.358C0.546,-0.349 0.533,-0.344 0.516,-0.344L0.508,-0.344L0.508,-0.008C0.508,0.063 0.488,0.115 0.45,0.147C0.411,0.18 0.349,0.196 0.263,0.196C0.21,0.196 0.171,0.191 0.146,0.18C0.121,0.17 0.109,0.153 0.109,0.131C0.109,0.115 0.114,0.103 0.124,0.093C0.134,0.083 0.147,0.078 0.164,0.078C0.168,0.078 0.182,0.08 0.206,0.083C0.23,0.085 0.252,0.087 0.272,0.087C0.319,0.087 0.351,0.078 0.368,0.061C0.386,0.043 0.395,0.011 0.395,-0.034L0.395,-0.056C0.372,-0.043 0.349,-0.033 0.326,-0.027C0.304,-0.02 0.28,-0.017 0.256,-0.017C0.19,-0.017 0.137,-0.038 0.095,-0.078C0.054,-0.119 0.033,-0.172 0.033,-0.236C0.033,-0.302 0.055,-0.356 0.098,-0.399C0.142,-0.442 0.197,-0.463 0.265,-0.463C0.294,-0.463 0.32,-0.458 0.342,-0.449C0.364,-0.44 0.384,-0.425 0.4,-0.406Z" style="fill:rgb(0,112,181);fill-rule:nonzero;"/>
                </g>
                <g transform="matrix(500,0,0,500,1200.2,0)">
                    <path d="M0.278,-0.265L0.278,-0.107L0.393,-0.107C0.415,-0.107 0.431,-0.103 0.44,-0.095C0.449,-0.087 0.454,-0.073 0.454,-0.054C0.454,-0.035 0.449,-0.021 0.44,-0.013C0.431,-0.004 0.415,-0 0.393,-0L0.12,-0C0.098,-0 0.082,-0.004 0.072,-0.013C0.063,-0.021 0.058,-0.035 0.058,-0.054C0.058,-0.073 0.063,-0.087 0.072,-0.095C0.081,-0.103 0.097,-0.107 0.12,-0.107L0.157,-0.107L0.157,-0.344L0.136,-0.344C0.114,-0.344 0.098,-0.348 0.089,-0.357C0.08,-0.365 0.075,-0.379 0.075,-0.398C0.075,-0.417 0.08,-0.431 0.089,-0.439C0.098,-0.447 0.113,-0.451 0.136,-0.451L0.24,-0.451C0.249,-0.451 0.256,-0.449 0.261,-0.446C0.266,-0.442 0.268,-0.437 0.268,-0.43L0.268,-0.358C0.304,-0.396 0.337,-0.423 0.367,-0.439C0.398,-0.456 0.431,-0.464 0.467,-0.464C0.499,-0.464 0.525,-0.457 0.543,-0.442C0.562,-0.428 0.572,-0.408 0.572,-0.384C0.572,-0.365 0.565,-0.349 0.552,-0.337C0.539,-0.325 0.522,-0.319 0.502,-0.319C0.487,-0.319 0.47,-0.324 0.45,-0.335C0.43,-0.346 0.416,-0.351 0.408,-0.351C0.393,-0.351 0.374,-0.344 0.353,-0.33C0.332,-0.316 0.307,-0.294 0.278,-0.265Z" style="fill:rgb(0,112,181);fill-rule:nonzero;"/>
                </g>
                <g transform="matrix(500,0,0,500,1500.24,0)">
                    <path d="M0.499,-0.107L0.507,-0.107C0.524,-0.107 0.538,-0.102 0.547,-0.093C0.556,-0.084 0.561,-0.07 0.561,-0.053C0.561,-0.034 0.556,-0.021 0.547,-0.012C0.537,-0.004 0.521,-0 0.499,-0L0.453,-0C0.437,-0 0.425,-0.003 0.417,-0.009C0.409,-0.015 0.402,-0.027 0.397,-0.043C0.37,-0.025 0.341,-0.011 0.311,-0.002C0.281,0.007 0.25,0.012 0.219,0.012C0.167,0.012 0.126,-0.001 0.096,-0.027C0.066,-0.053 0.051,-0.089 0.051,-0.134C0.051,-0.183 0.07,-0.221 0.109,-0.248C0.148,-0.275 0.202,-0.288 0.272,-0.288C0.288,-0.288 0.304,-0.287 0.322,-0.286C0.339,-0.284 0.359,-0.281 0.381,-0.278L0.381,-0.287C0.381,-0.316 0.374,-0.339 0.36,-0.354C0.345,-0.369 0.325,-0.377 0.297,-0.377C0.275,-0.377 0.248,-0.369 0.215,-0.353C0.181,-0.337 0.157,-0.329 0.141,-0.329C0.126,-0.329 0.113,-0.334 0.104,-0.343C0.095,-0.351 0.09,-0.363 0.09,-0.378C0.09,-0.404 0.109,-0.425 0.148,-0.441C0.186,-0.456 0.239,-0.464 0.305,-0.464C0.375,-0.464 0.424,-0.451 0.454,-0.424C0.484,-0.397 0.499,-0.352 0.499,-0.288L0.499,-0.107ZM0.381,-0.201C0.365,-0.205 0.35,-0.207 0.336,-0.209C0.322,-0.211 0.31,-0.212 0.298,-0.212C0.262,-0.212 0.234,-0.206 0.214,-0.194C0.193,-0.182 0.183,-0.165 0.183,-0.144C0.183,-0.125 0.19,-0.111 0.203,-0.101C0.216,-0.091 0.234,-0.086 0.259,-0.086C0.281,-0.086 0.302,-0.089 0.322,-0.096C0.342,-0.102 0.362,-0.112 0.381,-0.126L0.381,-0.201Z" style="fill:rgb(0,112,181);fill-rule:nonzero;"/>
                </g>
                <g transform="matrix(500,0,0,500,1800.29,0)">
                    <path d="M0.266,-0.424L0.415,-0.424C0.438,-0.424 0.453,-0.42 0.463,-0.412C0.472,-0.403 0.477,-0.39 0.477,-0.371C0.477,-0.352 0.472,-0.338 0.463,-0.33C0.453,-0.321 0.437,-0.317 0.415,-0.317L0.266,-0.317L0.266,-0.192C0.266,-0.157 0.271,-0.133 0.282,-0.12C0.293,-0.107 0.312,-0.1 0.339,-0.1C0.364,-0.1 0.394,-0.107 0.429,-0.122C0.463,-0.137 0.486,-0.144 0.498,-0.144C0.511,-0.144 0.523,-0.139 0.532,-0.128C0.542,-0.118 0.547,-0.105 0.547,-0.09C0.547,-0.065 0.524,-0.042 0.479,-0.021C0.433,-0.001 0.382,0.01 0.324,0.01C0.291,0.01 0.261,0.005 0.236,-0.004C0.21,-0.013 0.19,-0.026 0.176,-0.043C0.165,-0.056 0.157,-0.072 0.153,-0.09C0.148,-0.108 0.146,-0.139 0.146,-0.181L0.146,-0.317L0.1,-0.317C0.078,-0.317 0.062,-0.321 0.053,-0.33C0.044,-0.338 0.039,-0.352 0.039,-0.371C0.039,-0.39 0.044,-0.404 0.053,-0.412C0.062,-0.42 0.078,-0.424 0.1,-0.424L0.146,-0.424L0.146,-0.538C0.146,-0.561 0.151,-0.576 0.16,-0.585C0.169,-0.595 0.185,-0.599 0.206,-0.599C0.228,-0.599 0.243,-0.595 0.252,-0.585C0.261,-0.576 0.266,-0.561 0.266,-0.538L0.266,-0.424Z" style="fill:rgb(0,112,181);fill-rule:nonzero;"/>
                </g>
                <g transform="matrix(500,0,0,500,2100.34,0)">
                    <path d="M0.167,-0.197C0.175,-0.161 0.192,-0.134 0.216,-0.116C0.24,-0.098 0.273,-0.089 0.313,-0.089C0.353,-0.089 0.393,-0.099 0.433,-0.118C0.472,-0.138 0.496,-0.148 0.504,-0.148C0.516,-0.148 0.526,-0.143 0.533,-0.135C0.541,-0.126 0.545,-0.114 0.545,-0.1C0.545,-0.069 0.522,-0.043 0.477,-0.021C0.432,0.001 0.376,0.012 0.309,0.012C0.23,0.012 0.166,-0.01 0.117,-0.054C0.068,-0.098 0.043,-0.155 0.043,-0.225C0.043,-0.294 0.068,-0.351 0.117,-0.396C0.166,-0.44 0.23,-0.462 0.309,-0.462C0.379,-0.462 0.438,-0.441 0.484,-0.4C0.53,-0.358 0.553,-0.307 0.553,-0.247C0.553,-0.228 0.549,-0.215 0.539,-0.208C0.53,-0.2 0.511,-0.197 0.482,-0.197L0.167,-0.197ZM0.43,-0.273C0.425,-0.303 0.41,-0.327 0.387,-0.343C0.365,-0.36 0.335,-0.368 0.298,-0.368C0.262,-0.368 0.234,-0.36 0.212,-0.344C0.191,-0.329 0.175,-0.305 0.167,-0.273L0.43,-0.273Z" style="fill:rgb(0,112,181);fill-rule:nonzero;"/>
                </g>
                <g transform="matrix(500,0,0,500,2400.39,0)">
                    <path d="M0.508,-0.107L0.516,-0.107C0.534,-0.107 0.547,-0.102 0.556,-0.094C0.564,-0.085 0.569,-0.071 0.569,-0.054C0.569,-0.035 0.564,-0.021 0.555,-0.013C0.546,-0.004 0.53,-0 0.508,-0L0.433,-0C0.424,-0 0.416,-0.002 0.411,-0.006C0.406,-0.009 0.404,-0.014 0.404,-0.021L0.404,-0.055C0.388,-0.033 0.367,-0.017 0.342,-0.005C0.317,0.006 0.289,0.012 0.258,0.012C0.194,0.012 0.141,-0.01 0.098,-0.053C0.055,-0.096 0.033,-0.151 0.033,-0.216C0.033,-0.284 0.055,-0.34 0.098,-0.384C0.142,-0.429 0.197,-0.451 0.264,-0.451C0.287,-0.451 0.31,-0.447 0.332,-0.44C0.354,-0.432 0.374,-0.421 0.392,-0.407L0.392,-0.531L0.327,-0.531C0.305,-0.531 0.289,-0.535 0.279,-0.544C0.27,-0.552 0.265,-0.566 0.265,-0.585C0.265,-0.604 0.27,-0.618 0.279,-0.626C0.289,-0.635 0.305,-0.639 0.327,-0.639L0.479,-0.639C0.49,-0.639 0.498,-0.637 0.502,-0.632C0.506,-0.628 0.508,-0.619 0.508,-0.607L0.508,-0.107ZM0.279,-0.347C0.247,-0.347 0.22,-0.335 0.199,-0.311C0.178,-0.287 0.168,-0.257 0.168,-0.22C0.168,-0.182 0.178,-0.152 0.199,-0.128C0.22,-0.104 0.247,-0.092 0.279,-0.092C0.311,-0.092 0.338,-0.104 0.359,-0.128C0.38,-0.152 0.39,-0.183 0.39,-0.22C0.39,-0.257 0.38,-0.287 0.358,-0.311C0.337,-0.335 0.311,-0.347 0.279,-0.347Z" style="fill:rgb(0,112,181);fill-rule:nonzero;"/>
                </g>
            </g>
            <g transform="matrix(1.83021,0,0,2,4583.72,4351.83)">
                <g transform="matrix(500,0,0,500,0,0)">
                    <path d="M0.22,-0.471L0.22,-0.359L0.38,-0.359L0.38,-0.471L0.372,-0.471C0.354,-0.471 0.341,-0.476 0.332,-0.485C0.323,-0.494 0.318,-0.507 0.318,-0.525C0.318,-0.544 0.323,-0.558 0.332,-0.566C0.342,-0.575 0.358,-0.579 0.38,-0.579L0.506,-0.579C0.528,-0.579 0.544,-0.575 0.553,-0.566C0.562,-0.558 0.567,-0.544 0.567,-0.525C0.567,-0.507 0.562,-0.494 0.553,-0.485C0.545,-0.476 0.531,-0.471 0.514,-0.471L0.506,-0.471L0.506,-0.107L0.514,-0.107C0.532,-0.107 0.545,-0.102 0.554,-0.094C0.563,-0.085 0.568,-0.071 0.568,-0.054C0.568,-0.035 0.563,-0.021 0.554,-0.013C0.544,-0.004 0.528,-0 0.506,-0L0.38,-0C0.357,-0 0.341,-0.004 0.332,-0.012C0.323,-0.021 0.318,-0.035 0.318,-0.054C0.318,-0.071 0.323,-0.085 0.332,-0.094C0.341,-0.102 0.354,-0.107 0.372,-0.107L0.38,-0.107L0.38,-0.251L0.22,-0.251L0.22,-0.107L0.228,-0.107C0.246,-0.107 0.259,-0.102 0.268,-0.094C0.278,-0.085 0.282,-0.071 0.282,-0.054C0.282,-0.035 0.277,-0.021 0.268,-0.013C0.258,-0.004 0.242,-0 0.22,-0L0.094,-0C0.072,-0 0.056,-0.004 0.046,-0.012C0.037,-0.021 0.032,-0.035 0.032,-0.054C0.032,-0.071 0.037,-0.085 0.046,-0.094C0.055,-0.102 0.068,-0.107 0.086,-0.107L0.094,-0.107L0.094,-0.471L0.086,-0.471C0.069,-0.471 0.056,-0.476 0.047,-0.485C0.038,-0.494 0.033,-0.507 0.033,-0.525C0.033,-0.544 0.038,-0.558 0.047,-0.566C0.056,-0.575 0.072,-0.579 0.094,-0.579L0.22,-0.579C0.242,-0.579 0.258,-0.575 0.268,-0.566C0.277,-0.558 0.282,-0.544 0.282,-0.525C0.282,-0.507 0.278,-0.494 0.268,-0.485C0.259,-0.476 0.246,-0.471 0.228,-0.471L0.22,-0.471Z" style="fill:rgb(5,175,176);fill-rule:nonzero;"/>
                </g>
            </g>
            <g transform="matrix(1.83021,0,0,2,5178.72,4351.83)">
                <g transform="matrix(500,0,0,500,0,0)">
                    <path d="M0.167,-0.197C0.175,-0.161 0.192,-0.134 0.216,-0.116C0.24,-0.098 0.273,-0.089 0.313,-0.089C0.353,-0.089 0.393,-0.099 0.433,-0.118C0.472,-0.138 0.496,-0.148 0.504,-0.148C0.516,-0.148 0.526,-0.143 0.533,-0.135C0.541,-0.126 0.545,-0.114 0.545,-0.1C0.545,-0.069 0.522,-0.043 0.477,-0.021C0.432,0.001 0.376,0.012 0.309,0.012C0.23,0.012 0.166,-0.01 0.117,-0.054C0.068,-0.098 0.043,-0.155 0.043,-0.225C0.043,-0.294 0.068,-0.351 0.117,-0.396C0.166,-0.44 0.23,-0.462 0.309,-0.462C0.379,-0.462 0.438,-0.441 0.484,-0.4C0.53,-0.358 0.553,-0.307 0.553,-0.247C0.553,-0.228 0.549,-0.215 0.539,-0.208C0.53,-0.2 0.511,-0.197 0.482,-0.197L0.167,-0.197ZM0.43,-0.273C0.425,-0.303 0.41,-0.327 0.387,-0.343C0.365,-0.36 0.335,-0.368 0.298,-0.368C0.262,-0.368 0.234,-0.36 0.212,-0.344C0.191,-0.329 0.175,-0.305 0.167,-0.273L0.43,-0.273Z" style="fill:rgb(5,175,176);fill-rule:nonzero;"/>
                </g>
                <g transform="matrix(500,0,0,500,300.049,0)">
                    <path d="M0.499,-0.107L0.507,-0.107C0.524,-0.107 0.538,-0.102 0.547,-0.093C0.556,-0.084 0.561,-0.07 0.561,-0.053C0.561,-0.034 0.556,-0.021 0.547,-0.012C0.537,-0.004 0.521,-0 0.499,-0L0.453,-0C0.437,-0 0.425,-0.003 0.417,-0.009C0.409,-0.015 0.402,-0.027 0.397,-0.043C0.37,-0.025 0.341,-0.011 0.311,-0.002C0.281,0.007 0.25,0.012 0.219,0.012C0.167,0.012 0.126,-0.001 0.096,-0.027C0.066,-0.053 0.051,-0.089 0.051,-0.134C0.051,-0.183 0.07,-0.221 0.109,-0.248C0.148,-0.275 0.202,-0.288 0.272,-0.288C0.288,-0.288 0.304,-0.287 0.322,-0.286C0.339,-0.284 0.359,-0.281 0.381,-0.278L0.381,-0.287C0.381,-0.316 0.374,-0.339 0.36,-0.354C0.345,-0.369 0.325,-0.377 0.297,-0.377C0.275,-0.377 0.248,-0.369 0.215,-0.353C0.181,-0.337 0.157,-0.329 0.141,-0.329C0.126,-0.329 0.113,-0.334 0.104,-0.343C0.095,-0.351 0.09,-0.363 0.09,-0.378C0.09,-0.404 0.109,-0.425 0.148,-0.441C0.186,-0.456 0.239,-0.464 0.305,-0.464C0.375,-0.464 0.424,-0.451 0.454,-0.424C0.484,-0.397 0.499,-0.352 0.499,-0.288L0.499,-0.107ZM0.381,-0.201C0.365,-0.205 0.35,-0.207 0.336,-0.209C0.322,-0.211 0.31,-0.212 0.298,-0.212C0.262,-0.212 0.234,-0.206 0.214,-0.194C0.193,-0.182 0.183,-0.165 0.183,-0.144C0.183,-0.125 0.19,-0.111 0.203,-0.101C0.216,-0.091 0.234,-0.086 0.259,-0.086C0.281,-0.086 0.302,-0.089 0.322,-0.096C0.342,-0.102 0.362,-0.112 0.381,-0.126L0.381,-0.201Z" style="fill:rgb(5,175,176);fill-rule:nonzero;"/>
                </g>
                <g transform="matrix(500,0,0,500,600.098,0)">
                    <path d="M0.36,-0.107L0.465,-0.107C0.487,-0.107 0.503,-0.103 0.512,-0.095C0.521,-0.087 0.526,-0.073 0.526,-0.054C0.526,-0.035 0.521,-0.021 0.512,-0.013C0.503,-0.004 0.487,-0 0.465,-0L0.134,-0C0.112,-0 0.096,-0.004 0.087,-0.013C0.078,-0.021 0.073,-0.035 0.073,-0.054C0.073,-0.073 0.078,-0.087 0.087,-0.095C0.096,-0.103 0.111,-0.107 0.134,-0.107L0.239,-0.107L0.239,-0.531L0.185,-0.531C0.163,-0.531 0.147,-0.535 0.137,-0.544C0.128,-0.552 0.123,-0.566 0.123,-0.585C0.123,-0.604 0.128,-0.618 0.137,-0.626C0.147,-0.635 0.163,-0.639 0.185,-0.639L0.331,-0.639C0.34,-0.639 0.347,-0.637 0.352,-0.634C0.357,-0.63 0.36,-0.625 0.36,-0.618L0.36,-0.107Z" style="fill:rgb(5,175,176);fill-rule:nonzero;"/>
                </g>
                <g transform="matrix(500,0,0,500,900.146,0)">
                    <path d="M0.266,-0.424L0.415,-0.424C0.438,-0.424 0.453,-0.42 0.463,-0.412C0.472,-0.403 0.477,-0.39 0.477,-0.371C0.477,-0.352 0.472,-0.338 0.463,-0.33C0.453,-0.321 0.437,-0.317 0.415,-0.317L0.266,-0.317L0.266,-0.192C0.266,-0.157 0.271,-0.133 0.282,-0.12C0.293,-0.107 0.312,-0.1 0.339,-0.1C0.364,-0.1 0.394,-0.107 0.429,-0.122C0.463,-0.137 0.486,-0.144 0.498,-0.144C0.511,-0.144 0.523,-0.139 0.532,-0.128C0.542,-0.118 0.547,-0.105 0.547,-0.09C0.547,-0.065 0.524,-0.042 0.479,-0.021C0.433,-0.001 0.382,0.01 0.324,0.01C0.291,0.01 0.261,0.005 0.236,-0.004C0.21,-0.013 0.19,-0.026 0.176,-0.043C0.165,-0.056 0.157,-0.072 0.153,-0.09C0.148,-0.108 0.146,-0.139 0.146,-0.181L0.146,-0.317L0.1,-0.317C0.078,-0.317 0.062,-0.321 0.053,-0.33C0.044,-0.338 0.039,-0.352 0.039,-0.371C0.039,-0.39 0.044,-0.404 0.053,-0.412C0.062,-0.42 0.078,-0.424 0.1,-0.424L0.146,-0.424L0.146,-0.538C0.146,-0.561 0.151,-0.576 0.16,-0.585C0.169,-0.595 0.185,-0.599 0.206,-0.599C0.228,-0.599 0.243,-0.595 0.252,-0.585C0.261,-0.576 0.266,-0.561 0.266,-0.538L0.266,-0.424Z" style="fill:rgb(5,175,176);fill-rule:nonzero;"/>
                </g>
                <g transform="matrix(500,0,0,500,1200.2,0)">
                    <path d="M0.221,-0.402C0.233,-0.422 0.249,-0.437 0.27,-0.447C0.29,-0.458 0.315,-0.463 0.344,-0.463C0.396,-0.463 0.435,-0.448 0.463,-0.418C0.491,-0.388 0.505,-0.345 0.505,-0.289L0.505,-0.107L0.513,-0.107C0.53,-0.107 0.544,-0.102 0.552,-0.094C0.561,-0.085 0.566,-0.071 0.566,-0.054C0.566,-0.035 0.561,-0.021 0.552,-0.013C0.543,-0.004 0.527,-0 0.505,-0L0.384,-0C0.362,-0 0.346,-0.004 0.337,-0.013C0.328,-0.021 0.323,-0.035 0.323,-0.054C0.323,-0.072 0.328,-0.085 0.336,-0.094C0.345,-0.103 0.358,-0.107 0.376,-0.107L0.384,-0.107L0.384,-0.249C0.384,-0.291 0.379,-0.32 0.368,-0.336C0.358,-0.352 0.341,-0.36 0.316,-0.36C0.29,-0.36 0.268,-0.349 0.249,-0.328C0.23,-0.307 0.221,-0.281 0.221,-0.249L0.221,-0.107L0.229,-0.107C0.247,-0.107 0.26,-0.102 0.269,-0.094C0.278,-0.085 0.282,-0.071 0.282,-0.054C0.282,-0.035 0.278,-0.021 0.268,-0.013C0.259,-0.004 0.243,-0 0.221,-0L0.1,-0C0.078,-0 0.062,-0.004 0.053,-0.012C0.044,-0.021 0.039,-0.035 0.039,-0.054C0.039,-0.071 0.044,-0.085 0.052,-0.094C0.061,-0.102 0.075,-0.107 0.092,-0.107L0.1,-0.107L0.1,-0.531L0.092,-0.531C0.075,-0.531 0.061,-0.535 0.052,-0.545C0.043,-0.554 0.038,-0.567 0.038,-0.585C0.038,-0.604 0.043,-0.618 0.052,-0.626C0.062,-0.635 0.078,-0.639 0.1,-0.639L0.192,-0.639C0.203,-0.639 0.211,-0.637 0.215,-0.632C0.219,-0.628 0.221,-0.619 0.221,-0.607L0.221,-0.402Z" style="fill:rgb(5,175,176);fill-rule:nonzero;"/>
                </g>
            </g>
            <g transform="matrix(1.83021,0,0,2,4583.72,5451.83)">
                <g transform="matrix(500,0,0,500,0,0)">
                    <path d="M0.422,-0.568C0.427,-0.578 0.432,-0.585 0.438,-0.589C0.445,-0.593 0.454,-0.595 0.467,-0.595C0.486,-0.595 0.498,-0.592 0.503,-0.585C0.509,-0.578 0.512,-0.564 0.512,-0.543L0.514,-0.449L0.514,-0.444C0.514,-0.425 0.51,-0.411 0.503,-0.404C0.495,-0.396 0.482,-0.392 0.464,-0.392C0.441,-0.392 0.424,-0.404 0.412,-0.429C0.41,-0.433 0.409,-0.436 0.408,-0.438C0.398,-0.458 0.384,-0.473 0.367,-0.484C0.35,-0.494 0.33,-0.499 0.306,-0.499C0.277,-0.499 0.253,-0.492 0.235,-0.479C0.217,-0.465 0.208,-0.448 0.208,-0.427C0.208,-0.397 0.249,-0.373 0.332,-0.356C0.346,-0.353 0.357,-0.351 0.365,-0.349C0.428,-0.335 0.473,-0.315 0.501,-0.287C0.529,-0.259 0.543,-0.22 0.543,-0.172C0.543,-0.112 0.523,-0.066 0.482,-0.033C0.441,-0.001 0.383,0.015 0.307,0.015C0.278,0.015 0.251,0.013 0.228,0.009C0.205,0.005 0.182,-0.001 0.16,-0.009C0.155,-0 0.149,0.006 0.142,0.01C0.135,0.013 0.126,0.015 0.114,0.015C0.093,0.015 0.079,0.011 0.071,0.003C0.063,-0.004 0.058,-0.018 0.058,-0.038L0.056,-0.153L0.056,-0.158C0.056,-0.18 0.06,-0.195 0.068,-0.203C0.076,-0.212 0.09,-0.216 0.11,-0.216C0.131,-0.216 0.149,-0.201 0.163,-0.17C0.166,-0.162 0.169,-0.157 0.171,-0.153C0.184,-0.128 0.201,-0.109 0.224,-0.097C0.247,-0.084 0.274,-0.078 0.307,-0.078C0.337,-0.078 0.36,-0.084 0.377,-0.097C0.394,-0.109 0.402,-0.126 0.402,-0.149C0.402,-0.184 0.364,-0.21 0.289,-0.228C0.267,-0.233 0.249,-0.238 0.236,-0.241C0.173,-0.258 0.129,-0.279 0.104,-0.303C0.08,-0.328 0.068,-0.362 0.068,-0.406C0.068,-0.461 0.089,-0.507 0.131,-0.542C0.172,-0.578 0.227,-0.595 0.293,-0.595C0.315,-0.595 0.337,-0.593 0.358,-0.588C0.379,-0.584 0.401,-0.577 0.422,-0.568Z" style="fill:rgb(0,112,181);fill-rule:nonzero;"/>
                </g>
            </g>
            <g transform="matrix(1.83021,0,0,2,5178.72,5451.83)">
                <g transform="matrix(500,0,0,500,0,0)">
                    <path d="M0.167,-0.197C0.175,-0.161 0.192,-0.134 0.216,-0.116C0.24,-0.098 0.273,-0.089 0.313,-0.089C0.353,-0.089 0.393,-0.099 0.433,-0.118C0.472,-0.138 0.496,-0.148 0.504,-0.148C0.516,-0.148 0.526,-0.143 0.533,-0.135C0.541,-0.126 0.545,-0.114 0.545,-0.1C0.545,-0.069 0.522,-0.043 0.477,-0.021C0.432,0.001 0.376,0.012 0.309,0.012C0.23,0.012 0.166,-0.01 0.117,-0.054C0.068,-0.098 0.043,-0.155 0.043,-0.225C0.043,-0.294 0.068,-0.351 0.117,-0.396C0.166,-0.44 0.23,-0.462 0.309,-0.462C0.379,-0.462 0.438,-0.441 0.484,-0.4C0.53,-0.358 0.553,-0.307 0.553,-0.247C0.553,-0.228 0.549,-0.215 0.539,-0.208C0.53,-0.2 0.511,-0.197 0.482,-0.197L0.167,-0.197ZM0.43,-0.273C0.425,-0.303 0.41,-0.327 0.387,-0.343C0.365,-0.36 0.335,-0.368 0.298,-0.368C0.262,-0.368 0.234,-0.36 0.212,-0.344C0.191,-0.329 0.175,-0.305 0.167,-0.273L0.43,-0.273Z" style="fill:rgb(0,112,181);fill-rule:nonzero;"/>
                </g>
                <g transform="matrix(500,0,0,500,300.049,0)">
                    <path d="M0.278,-0.265L0.278,-0.107L0.393,-0.107C0.415,-0.107 0.431,-0.103 0.44,-0.095C0.449,-0.087 0.454,-0.073 0.454,-0.054C0.454,-0.035 0.449,-0.021 0.44,-0.013C0.431,-0.004 0.415,-0 0.393,-0L0.12,-0C0.098,-0 0.082,-0.004 0.072,-0.013C0.063,-0.021 0.058,-0.035 0.058,-0.054C0.058,-0.073 0.063,-0.087 0.072,-0.095C0.081,-0.103 0.097,-0.107 0.12,-0.107L0.157,-0.107L0.157,-0.344L0.136,-0.344C0.114,-0.344 0.098,-0.348 0.089,-0.357C0.08,-0.365 0.075,-0.379 0.075,-0.398C0.075,-0.417 0.08,-0.431 0.089,-0.439C0.098,-0.447 0.113,-0.451 0.136,-0.451L0.24,-0.451C0.249,-0.451 0.256,-0.449 0.261,-0.446C0.266,-0.442 0.268,-0.437 0.268,-0.43L0.268,-0.358C0.304,-0.396 0.337,-0.423 0.367,-0.439C0.398,-0.456 0.431,-0.464 0.467,-0.464C0.499,-0.464 0.525,-0.457 0.543,-0.442C0.562,-0.428 0.572,-0.408 0.572,-0.384C0.572,-0.365 0.565,-0.349 0.552,-0.337C0.539,-0.325 0.522,-0.319 0.502,-0.319C0.487,-0.319 0.47,-0.324 0.45,-0.335C0.43,-0.346 0.416,-0.351 0.408,-0.351C0.393,-0.351 0.374,-0.344 0.353,-0.33C0.332,-0.316 0.307,-0.294 0.278,-0.265Z" style="fill:rgb(0,112,181);fill-rule:nonzero;"/>
                </g>
                <g transform="matrix(500,0,0,500,600.098,0)">
                    <path d="M0.214,-0.344L0.302,-0.136L0.394,-0.344L0.386,-0.344C0.369,-0.344 0.355,-0.349 0.346,-0.358C0.337,-0.367 0.332,-0.38 0.332,-0.398C0.332,-0.417 0.337,-0.431 0.346,-0.439C0.355,-0.447 0.371,-0.451 0.394,-0.451L0.509,-0.451C0.532,-0.451 0.548,-0.447 0.557,-0.439C0.566,-0.43 0.571,-0.417 0.571,-0.398C0.571,-0.38 0.566,-0.367 0.557,-0.358C0.548,-0.349 0.535,-0.344 0.517,-0.344L0.509,-0.344L0.364,-0.036C0.353,-0.014 0.343,-0 0.335,0.005C0.326,0.01 0.313,0.012 0.295,0.012C0.262,0.012 0.24,-0.001 0.229,-0.029C0.228,-0.032 0.227,-0.035 0.226,-0.036L0.09,-0.344L0.082,-0.344C0.064,-0.344 0.051,-0.349 0.042,-0.358C0.032,-0.367 0.028,-0.38 0.028,-0.398C0.028,-0.417 0.033,-0.431 0.042,-0.439C0.051,-0.447 0.067,-0.451 0.09,-0.451L0.214,-0.451C0.236,-0.451 0.252,-0.447 0.262,-0.439C0.271,-0.43 0.276,-0.417 0.276,-0.398C0.276,-0.38 0.271,-0.367 0.262,-0.358C0.253,-0.349 0.239,-0.344 0.222,-0.344L0.214,-0.344Z" style="fill:rgb(0,112,181);fill-rule:nonzero;"/>
                </g>
                <g transform="matrix(500,0,0,500,900.146,0)">
                    <path d="M0.368,-0.107L0.473,-0.107C0.496,-0.107 0.512,-0.103 0.521,-0.095C0.53,-0.087 0.535,-0.073 0.535,-0.054C0.535,-0.035 0.53,-0.021 0.521,-0.013C0.511,-0.004 0.495,-0 0.473,-0L0.143,-0C0.121,-0 0.105,-0.004 0.095,-0.013C0.086,-0.021 0.081,-0.035 0.081,-0.054C0.081,-0.073 0.086,-0.087 0.095,-0.095C0.104,-0.103 0.12,-0.107 0.143,-0.107L0.248,-0.107L0.248,-0.344L0.193,-0.344C0.171,-0.344 0.155,-0.348 0.146,-0.357C0.137,-0.365 0.132,-0.379 0.132,-0.398C0.132,-0.417 0.136,-0.431 0.146,-0.439C0.155,-0.447 0.17,-0.451 0.193,-0.451L0.34,-0.451C0.349,-0.451 0.356,-0.449 0.361,-0.446C0.366,-0.442 0.368,-0.437 0.368,-0.43L0.368,-0.107ZM0.298,-0.672C0.322,-0.672 0.337,-0.667 0.345,-0.658C0.353,-0.649 0.357,-0.627 0.357,-0.593C0.357,-0.56 0.353,-0.539 0.346,-0.531C0.339,-0.523 0.323,-0.519 0.297,-0.519C0.271,-0.519 0.255,-0.523 0.248,-0.53C0.24,-0.538 0.237,-0.553 0.237,-0.575C0.237,-0.617 0.241,-0.643 0.248,-0.655C0.256,-0.666 0.272,-0.672 0.298,-0.672Z" style="fill:rgb(0,112,181);fill-rule:nonzero;"/>
                </g>
                <g transform="matrix(500,0,0,500,1200.2,0)">
                    <path d="M0.445,-0.425C0.449,-0.438 0.455,-0.447 0.463,-0.453C0.471,-0.46 0.482,-0.463 0.495,-0.463C0.513,-0.463 0.525,-0.458 0.533,-0.447C0.54,-0.436 0.544,-0.418 0.544,-0.392L0.544,-0.312C0.544,-0.292 0.54,-0.278 0.532,-0.268C0.524,-0.259 0.511,-0.254 0.494,-0.254C0.482,-0.254 0.472,-0.257 0.464,-0.262C0.456,-0.268 0.447,-0.278 0.438,-0.294C0.425,-0.316 0.408,-0.332 0.387,-0.343C0.366,-0.354 0.34,-0.359 0.309,-0.359C0.271,-0.359 0.24,-0.346 0.216,-0.322C0.191,-0.297 0.179,-0.265 0.179,-0.226C0.179,-0.185 0.192,-0.153 0.217,-0.128C0.242,-0.103 0.276,-0.091 0.318,-0.091C0.356,-0.091 0.394,-0.101 0.432,-0.123C0.47,-0.144 0.493,-0.155 0.502,-0.155C0.514,-0.155 0.524,-0.15 0.532,-0.141C0.54,-0.132 0.544,-0.12 0.544,-0.106C0.544,-0.075 0.521,-0.048 0.474,-0.024C0.428,0 0.373,0.012 0.309,0.012C0.23,0.012 0.166,-0.01 0.117,-0.054C0.068,-0.098 0.043,-0.155 0.043,-0.225C0.043,-0.293 0.067,-0.35 0.116,-0.395C0.165,-0.44 0.227,-0.463 0.301,-0.463C0.326,-0.463 0.35,-0.46 0.374,-0.454C0.398,-0.447 0.421,-0.438 0.445,-0.425Z" style="fill:rgb(0,112,181);fill-rule:nonzero;"/>
                </g>
                <g transform="matrix(500,0,0,500,1500.24,0)">
                    <path d="M0.167,-0.197C0.175,-0.161 0.192,-0.134 0.216,-0.116C0.24,-0.098 0.273,-0.089 0.313,-0.089C0.353,-0.089 0.393,-0.099 0.433,-0.118C0.472,-0.138 0.496,-0.148 0.504,-0.148C0.516,-0.148 0.526,-0.143 0.533,-0.135C0.541,-0.126 0.545,-0.114 0.545,-0.1C0.545,-0.069 0.522,-0.043 0.477,-0.021C0.432,0.001 0.376,0.012 0.309,0.012C0.23,0.012 0.166,-0.01 0.117,-0.054C0.068,-0.098 0.043,-0.155 0.043,-0.225C0.043,-0.294 0.068,-0.351 0.117,-0.396C0.166,-0.44 0.23,-0.462 0.309,-0.462C0.379,-0.462 0.438,-0.441 0.484,-0.4C0.53,-0.358 0.553,-0.307 0.553,-0.247C0.553,-0.228 0.549,-0.215 0.539,-0.208C0.53,-0.2 0.511,-0.197 0.482,-0.197L0.167,-0.197ZM0.43,-0.273C0.425,-0.303 0.41,-0.327 0.387,-0.343C0.365,-0.36 0.335,-0.368 0.298,-0.368C0.262,-0.368 0.234,-0.36 0.212,-0.344C0.191,-0.329 0.175,-0.305 0.167,-0.273L0.43,-0.273Z" style="fill:rgb(0,112,181);fill-rule:nonzero;"/>
                </g>
                <g transform="matrix(500,0,0,500,1800.29,0)">
                    <path d="M0.171,-0.007C0.162,-0 0.154,0.005 0.145,0.008C0.136,0.011 0.127,0.013 0.117,0.013C0.103,0.013 0.093,0.009 0.088,0.002C0.082,-0.006 0.079,-0.02 0.079,-0.04L0.079,-0.105C0.079,-0.126 0.083,-0.142 0.09,-0.151C0.097,-0.16 0.109,-0.164 0.127,-0.164C0.146,-0.164 0.162,-0.155 0.174,-0.136C0.181,-0.126 0.187,-0.119 0.192,-0.114C0.208,-0.099 0.226,-0.089 0.248,-0.082C0.269,-0.074 0.293,-0.071 0.32,-0.071C0.343,-0.071 0.362,-0.075 0.376,-0.084C0.39,-0.094 0.397,-0.105 0.397,-0.12C0.397,-0.146 0.359,-0.165 0.284,-0.175C0.268,-0.177 0.255,-0.179 0.245,-0.18C0.188,-0.188 0.146,-0.203 0.119,-0.226C0.091,-0.249 0.077,-0.28 0.077,-0.319C0.077,-0.365 0.094,-0.4 0.127,-0.425C0.16,-0.45 0.208,-0.463 0.269,-0.463C0.29,-0.463 0.312,-0.461 0.334,-0.458C0.357,-0.454 0.379,-0.449 0.403,-0.442C0.41,-0.45 0.417,-0.456 0.425,-0.46C0.432,-0.464 0.441,-0.466 0.45,-0.466C0.464,-0.466 0.474,-0.462 0.481,-0.453C0.488,-0.445 0.491,-0.433 0.491,-0.416L0.491,-0.356C0.491,-0.342 0.488,-0.331 0.48,-0.323C0.473,-0.316 0.463,-0.312 0.45,-0.312C0.437,-0.312 0.414,-0.324 0.382,-0.347C0.349,-0.37 0.317,-0.382 0.284,-0.382C0.259,-0.382 0.239,-0.378 0.225,-0.369C0.211,-0.361 0.204,-0.35 0.204,-0.335C0.204,-0.312 0.233,-0.297 0.292,-0.289C0.309,-0.287 0.322,-0.285 0.332,-0.284C0.406,-0.273 0.456,-0.257 0.484,-0.236C0.511,-0.215 0.525,-0.183 0.525,-0.141C0.525,-0.092 0.507,-0.054 0.47,-0.027C0.434,-0 0.383,0.013 0.316,0.013C0.29,0.013 0.265,0.011 0.241,0.008C0.217,0.005 0.193,-0 0.171,-0.007Z" style="fill:rgb(0,112,181);fill-rule:nonzero;"/>
                </g>
            </g>
        </g>
    </g>
</svg>
